<svg width="16" height="16" xmlns="http://www.w3.org/2000/svg" class="bi bi-emoji-wink" fill="currentColor">

 <g>
  <title>Layer 1</title>
  <path id="svg_2" d="m4.285,9.567a0.5,0.5 0 0 1 0.683,0.183a3.498,3.498 0 0 0 3.032,1.75a3.498,3.498 0 0 0 3.032,-1.75a0.5,0.5 0 1 1 0.866,0.5a4.498,4.498 0 0 1 -3.898,2.25a4.498,4.498 0 0 1 -3.898,-2.25a0.5,0.5 0 0 1 0.183,-0.683zm2.715,-3.067c0,0.828 -0.448,1.5 -1,1.5s-1,-0.672 -1,-1.5s0.448,-1.5 1,-1.5s1,0.672 1,1.5zm1.757,-0.437a0.5,0.5 0 0 1 0.68,0.194a0.934,0.934 0 0 0 0.813,0.493c0.339,0 0.645,-0.19 0.813,-0.493a0.5,0.5 0 1 1 0.874,0.486a1.934,1.934 0 0 1 -1.687,1.007c-0.73,0 -1.356,-0.412 -1.687,-1.007a0.5,0.5 0 0 1 0.194,-0.68z"/>
 </g>
</svg>