<svg id="visual" viewBox="0 0 1920 200" width="1920" height="200" xmlns="http://www.w3.org/2000/svg" xmlns:xlink="http://www.w3.org/1999/xlink" version="1.1"><path d="M0 37L14.5 35.8C29 34.7 58 32.3 87.2 32.2C116.3 32 145.7 34 174.8 34.5C204 35 233 34 262 33C291 32 320 31 349 30.7C378 30.3 407 30.7 436.2 31.8C465.3 33 494.7 35 523.8 33.7C553 32.3 582 27.7 611 26.2C640 24.7 669 26.3 698 26.7C727 27 756 26 785.2 24.7C814.3 23.3 843.7 21.7 872.8 23.7C902 25.7 931 31.3 960 32.8C989 34.3 1018 31.7 1047.2 31.5C1076.3 31.3 1105.7 33.7 1134.8 34.7C1164 35.7 1193 35.3 1222 34.7C1251 34 1280 33 1309 31.2C1338 29.3 1367 26.7 1396.2 27C1425.3 27.3 1454.7 30.7 1483.8 30.3C1513 30 1542 26 1571 24.3C1600 22.7 1629 23.3 1658 24.8C1687 26.3 1716 28.7 1745.2 30.5C1774.3 32.3 1803.7 33.7 1832.8 31.8C1862 30 1891 25 1905.5 22.5L1920 20L1920 0L1905.5 0C1891 0 1862 0 1832.8 0C1803.7 0 1774.3 0 1745.2 0C1716 0 1687 0 1658 0C1629 0 1600 0 1571 0C1542 0 1513 0 1483.8 0C1454.7 0 1425.3 0 1396.2 0C1367 0 1338 0 1309 0C1280 0 1251 0 1222 0C1193 0 1164 0 1134.8 0C1105.7 0 1076.3 0 1047.2 0C1018 0 989 0 960 0C931 0 902 0 872.8 0C843.7 0 814.3 0 785.2 0C756 0 727 0 698 0C669 0 640 0 611 0C582 0 553 0 523.8 0C494.7 0 465.3 0 436.2 0C407 0 378 0 349 0C320 0 291 0 262 0C233 0 204 0 174.8 0C145.7 0 116.3 0 87.2 0C58 0 29 0 14.5 0L0 0Z" fill="#d90368" stroke-linecap="round" stroke-linejoin="miter"></path></svg>