<svg id="visual" viewBox="0 0 1920 200" width="1920" height="200" xmlns="http://www.w3.org/2000/svg" xmlns:xlink="http://www.w3.org/1999/xlink" version="1.1"><rect x="0" y="0" width="1920" height="200" fill="#212529"></rect><path d="M0 174L14.5 172.3C29 170.7 58 167.3 87.2 167.7C116.3 168 145.7 172 174.8 173.5C204 175 233 174 262 174.2C291 174.3 320 175.7 349 174C378 172.3 407 167.7 436.2 165.5C465.3 163.3 494.7 163.7 523.8 165.8C553 168 582 172 611 173.5C640 175 669 174 698 171.7C727 169.3 756 165.7 785.2 165.7C814.3 165.7 843.7 169.3 872.8 169.2C902 169 931 165 960 163.2C989 161.3 1018 161.7 1047.2 164.3C1076.3 167 1105.7 172 1134.8 171.8C1164 171.7 1193 166.3 1222 164.7C1251 163 1280 165 1309 166.2C1338 167.3 1367 167.7 1396.2 168.2C1425.3 168.7 1454.7 169.3 1483.8 169C1513 168.7 1542 167.3 1571 166.8C1600 166.3 1629 166.7 1658 166.2C1687 165.7 1716 164.3 1745.2 163.5C1774.3 162.7 1803.7 162.3 1832.8 162.5C1862 162.7 1891 163.3 1905.5 163.7L1920 164L1920 201L1905.5 201C1891 201 1862 201 1832.8 201C1803.7 201 1774.3 201 1745.2 201C1716 201 1687 201 1658 201C1629 201 1600 201 1571 201C1542 201 1513 201 1483.8 201C1454.7 201 1425.3 201 1396.2 201C1367 201 1338 201 1309 201C1280 201 1251 201 1222 201C1193 201 1164 201 1134.8 201C1105.7 201 1076.3 201 1047.2 201C1018 201 989 201 960 201C931 201 902 201 872.8 201C843.7 201 814.3 201 785.2 201C756 201 727 201 698 201C669 201 640 201 611 201C582 201 553 201 523.8 201C494.7 201 465.3 201 436.2 201C407 201 378 201 349 201C320 201 291 201 262 201C233 201 204 201 174.8 201C145.7 201 116.3 201 87.2 201C58 201 29 201 14.5 201L0 201Z" fill="#d90368" stroke-linecap="round" stroke-linejoin="miter"></path></svg>